<svg width="21" height="20" viewBox="0 0 21 20" fill="none" xmlns="http://www.w3.org/2000/svg">
<path fill-rule="evenodd" clip-rule="evenodd" d="M10.5 16.9016L9.31273 15.8535C5.09587 12.1454 2.31193 9.69185 2.31193 6.69838C2.31193 4.24485 4.29344 2.33125 6.81537 2.33125C7.86717 2.33125 8.88774 2.68178 9.70904 3.27103C10.0002 3.47994 10.2664 3.71887 10.5 3.98282C10.7336 3.71887 10.9998 3.47994 11.291 3.27103C12.1123 2.68178 13.1328 2.33125 14.1846 2.33125C16.7066 2.33125 18.6881 4.24485 18.6881 6.69838C18.6881 9.69185 15.9041 12.1454 11.6873 15.8535L10.5 16.9016ZM13.2102 17.6075L10.5 20L7.79322 17.6105L7.70286 17.531C5.67609 15.7489 3.80941 14.1075 2.4694 12.5177C1.08729 10.878 0 8.99179 0 6.69838C0 2.86963 3.10535 0 6.81537 0C8.12938 0 9.40459 0.368151 10.5 1.01372C11.5954 0.36815 12.8706 0 14.1846 0C17.8947 0 21 2.86963 21 6.69838C21 8.99179 19.9127 10.878 18.5306 12.5177C17.1906 14.1075 15.3239 15.7489 13.2971 17.531L13.2102 17.6075Z" fill="white"/>
</svg>
